<svg width="40" height="40" viewBox="0 0 40 40" fill="none" xmlns="http://www.w3.org/2000/svg">
<path d="M20 0C8.95431 0 0 8.95431 0 20C0 31.0457 8.95431 40 20 40C31.0457 40 40 31.0457 40 20C40 8.95431 31.0457 0 20 0Z" fill="#DA392B"/>
<path d="M20.0002 13.3333C19.1161 13.3333 18.3335 14.1159 18.3335 15V25C18.3335 25.9205 19.1161 26.6667 20.0002 26.6667C20.8842 26.6667 21.6668 25.9205 21.6668 25V15C21.6668 14.1159 20.8842 13.3333 20.0002 13.3333Z" fill="white"/>
<path d="M28.3335 13.3333H26.6668C25.7464 13.3333 25.0002 14.1159 25.0002 15V25C25.0002 25.9205 25.7464 26.6667 26.6668 26.6667H28.3335C29.2539 26.6667 30.0002 25.9205 30.0002 25V15C30.0002 14.1159 29.2539 13.3333 28.3335 13.3333Z" fill="white"/>
<path d="M13.3335 13.3333H11.6668C10.7464 13.3333 10.0002 14.1159 10.0002 15V25C10.0002 25.9205 10.7464 26.6667 11.6668 26.6667H13.3335C14.2539 26.6667 15.0002 25.9205 15.0002 25V15C15.0002 14.1159 14.2539 13.3333 13.3335 13.3333Z" fill="white"/>
</svg>
