<svg width="40" height="40" viewBox="0 0 40 40" fill="none" xmlns="http://www.w3.org/2000/svg">
<g clip-path="url(#clip0_164_867)">
<path d="M28.3346 0H11.6654C5.23268 0 0 5.23268 0 11.6654V28.3346C0 34.7673 5.23268 40 11.6654 40H28.3346C34.7673 40 40 34.7673 40 28.3346V11.6654C40 5.23268 34.7673 0 28.3346 0Z" fill="url(#paint0_radial_164_867)"/>
<path d="M27.836 4.86401H12.164C8.04427 4.86401 4.72803 8.18026 4.72803 12.2999V27.972C4.72803 32.0916 8.04427 35.4079 12.164 35.4079H27.836C31.9557 35.4079 35.272 32.0916 35.272 27.972V12.2999C35.272 8.18026 31.9557 4.86401 27.836 4.86401Z" fill="white"/>
<path d="M20.002 11.8181C15.4838 11.8181 11.8201 15.4818 11.8201 20.0001C11.8201 24.5183 15.4838 28.182 20.002 28.182C24.5203 28.182 28.184 24.5183 28.184 20.0001C28.184 15.4818 24.5203 11.8181 20.002 11.8181Z" fill="url(#paint1_radial_164_867)"/>
<path d="M20.002 14.4545C16.9973 14.4545 14.5475 16.9953 14.5475 20.0001C14.5475 23.0048 16.9973 25.5456 20.002 25.5456C23.0068 25.5456 25.5476 23.0048 25.5476 20.0001C25.5476 16.9953 23.0068 14.4545 20.002 14.4545Z" fill="white"/>
<path d="M28.7019 11.3018C27.7318 11.3018 26.9419 10.5119 26.9419 9.54184C26.9419 8.57179 27.7318 7.78186 28.7019 7.78186C29.6719 7.78186 30.4618 8.57179 30.4618 9.54184C30.4618 10.5119 29.6719 11.3018 28.7019 11.3018Z" fill="url(#paint2_radial_164_867)"/>
</g>
<defs>
<radialGradient id="paint0_radial_164_867" cx="0" cy="0" r="1" gradientUnits="userSpaceOnUse" gradientTransform="translate(3.44828 3.44828) rotate(45) scale(51.6889)">
<stop stop-color="#FFC107"/>
<stop offset="0.505" stop-color="#F44336"/>
<stop offset="1" stop-color="#9C27B0"/>
</radialGradient>
<radialGradient id="paint1_radial_164_867" cx="0" cy="0" r="1" gradientUnits="userSpaceOnUse" gradientTransform="translate(14.1379 14.1379) rotate(45) scale(19.8891)">
<stop stop-color="#FFD54F"/>
<stop offset="0.62" stop-color="#F44336"/>
<stop offset="1" stop-color="#9C27B0"/>
</radialGradient>
<radialGradient id="paint2_radial_164_867" cx="0" cy="0" r="1" gradientUnits="userSpaceOnUse" gradientTransform="translate(27.4138 8.27586) rotate(45) scale(3.81609)">
<stop stop-color="#FFD54F"/>
<stop offset="0.62" stop-color="#F44336"/>
<stop offset="1" stop-color="#9C27B0"/>
</radialGradient>
<clipPath id="clip0_164_867">
<rect width="40" height="40" fill="white"/>
</clipPath>
</defs>
</svg>
